# xmcd
#
# Track frame offsets:
#	150
#	17118
#	35044
#	52341
#
# Disc length: 933 seconds
#
# Revision: 0
# Processed by: cddbd v1.5.2PL0 Copyright (c) Steve Scherf et al.
# Submitted via: dBpowerAMP V4.0
#
DISCID=3503a304
DTITLE=Sally-Anne Whitten - Changed and Different
DYEAR=2003
DGENRE=Country
TTITLE0=How do you sleep at night
TTITLE1=The love he wants most
TTITLE2=one step away
TTITLE3=Changed and Different
EXTD=
EXTT0=
EXTT1=
EXTT2=
EXTT3=
PLAYORDER=
